<svg width="18" height="18" viewBox="0 0 18 18" fill="none" xmlns="http://www.w3.org/2000/svg">
<path d="M10.249 5.09052V1.40777C10.249 1.14677 10.3359 0.930106 10.5098 0.757773C10.6836 0.585273 10.8989 0.499023 11.1558 0.499023H16.5963C16.8533 0.499023 17.0679 0.585273 17.2403 0.757773C17.4128 0.930106 17.499 1.14677 17.499 1.40777V5.09052C17.499 5.35136 17.4121 5.56794 17.2383 5.74027C17.0644 5.91277 16.8491 5.99902 16.5923 5.99902H11.1518C10.8948 5.99902 10.6801 5.91277 10.5078 5.74027C10.3353 5.56794 10.249 5.35136 10.249 5.09052ZM0.499023 8.59902V1.39877C0.499023 1.14377 0.58594 0.930106 0.759773 0.757773C0.933607 0.585273 1.14894 0.499023 1.40577 0.499023H6.84627C7.10327 0.499023 7.31794 0.585273 7.49027 0.757773C7.66277 0.930273 7.74902 1.14402 7.74902 1.39902V8.59927C7.74902 8.85427 7.66211 9.06794 7.48827 9.24027C7.31444 9.41277 7.09911 9.49902 6.84227 9.49902H1.40177C1.14477 9.49902 0.930107 9.41277 0.757774 9.24027C0.585274 9.06777 0.499023 8.85402 0.499023 8.59902ZM10.249 16.599V9.39877C10.249 9.14377 10.3359 8.93011 10.5098 8.75777C10.6836 8.58527 10.8989 8.49902 11.1558 8.49902H16.5963C16.8533 8.49902 17.0679 8.58527 17.2403 8.75777C17.4128 8.93027 17.499 9.14402 17.499 9.39902V16.5993C17.499 16.8543 17.4121 17.0679 17.2383 17.2403C17.0644 17.4128 16.8491 17.499 16.5923 17.499H11.1518C10.8948 17.499 10.6801 17.4128 10.5078 17.2403C10.3353 17.0678 10.249 16.854 10.249 16.599ZM0.499023 16.5903V12.9075C0.499023 12.6467 0.58594 12.4301 0.759773 12.2578C0.933607 12.0853 1.14894 11.999 1.40577 11.999H6.84627C7.10327 11.999 7.31794 12.0853 7.49027 12.2578C7.66277 12.4301 7.74902 12.6467 7.74902 12.9075V16.5903C7.74902 16.8513 7.66211 17.0679 7.48827 17.2403C7.31444 17.4128 7.09911 17.499 6.84227 17.499H1.40177C1.14477 17.499 0.930107 17.4128 0.757774 17.2403C0.585274 17.0679 0.499023 16.8513 0.499023 16.5903ZM1.99902 7.99902H6.24902V1.99902H1.99902V7.99902ZM11.749 15.999H15.999V9.99902H11.749V15.999ZM11.749 4.49902H15.999V1.99902H11.749V4.49902ZM1.99902 15.999H6.24902V13.499H1.99902V15.999Z" fill="#0054EB"/>
</svg>
