<svg width="11" height="7" viewBox="0 0 11 7" fill="none" xmlns="http://www.w3.org/2000/svg">
<path d="M9.21655 0.732035C9.35799 0.583387 9.54899 0.5 9.74803 0.5C9.94708 0.5 10.1381 0.583387 10.2795 0.732035C10.3493 0.805029 10.4048 0.892037 10.4427 0.987995C10.4805 1.08395 10.5 1.18694 10.5 1.29097C10.5 1.395 10.4805 1.49799 10.4427 1.59395C10.4048 1.68991 10.3493 1.77691 10.2795 1.84991L6.03202 6.26833C5.89026 6.41677 5.69913 6.5 5.5 6.5C5.30086 6.5 5.10974 6.41677 4.96798 6.26833L0.720486 1.84991C0.650654 1.77691 0.595199 1.68991 0.557346 1.59395C0.519493 1.49799 0.5 1.395 0.5 1.29097C0.5 1.18694 0.519493 1.08395 0.557346 0.987995C0.595199 0.892037 0.650654 0.805029 0.720486 0.732035C0.861925 0.583387 1.05292 0.5 1.25197 0.5C1.45101 0.5 1.64201 0.583387 1.78345 0.732035L5.50163 4.3556L9.21655 0.732035Z" fill="#666666"/>
</svg>
