<svg width="17" height="17" viewBox="0 0 17 17" fill="none" xmlns="http://www.w3.org/2000/svg">
<g clip-path="url(#clip0_20513_8418)">
<path d="M15.1407 3.60491C15.3178 3.78199 15.4696 4.02232 15.5961 4.32589C15.7225 4.62946 15.7858 4.90774 15.7858 5.16071V16.0893C15.7858 16.3423 15.6972 16.5573 15.5202 16.7344C15.3431 16.9115 15.128 17 14.8751 17H2.12507C1.87209 17 1.65706 16.9115 1.47998 16.7344C1.3029 16.5573 1.21436 16.3423 1.21436 16.0893V0.910714C1.21436 0.657738 1.3029 0.442708 1.47998 0.265625C1.65706 0.0885417 1.87209 0 2.12507 0H10.6251C10.878 0 11.1563 0.0632441 11.4599 0.189732C11.7635 0.31622 12.0038 0.468006 12.1809 0.645089L15.1407 3.60491ZM10.9286 1.29018V4.85714H14.4956C14.4324 4.67374 14.3628 4.54409 14.2869 4.46819L11.3176 1.49888C11.2417 1.42299 11.112 1.35342 10.9286 1.29018ZM14.5715 15.7857V6.07143H10.6251C10.3721 6.07143 10.1571 5.98289 9.97998 5.8058C9.8029 5.62872 9.71436 5.41369 9.71436 5.16071V1.21429H2.42864V15.7857H14.5715ZM4.85721 7.58929C4.85721 7.50074 4.88567 7.42801 4.94259 7.37109C4.99951 7.31417 5.07224 7.28571 5.16078 7.28571H11.8394C11.9279 7.28571 12.0006 7.31417 12.0575 7.37109C12.1145 7.42801 12.1429 7.50074 12.1429 7.58929V8.19643C12.1429 8.28497 12.1145 8.3577 12.0575 8.41462C12.0006 8.47154 11.9279 8.5 11.8394 8.5H5.16078C5.07224 8.5 4.99951 8.47154 4.94259 8.41462C4.88567 8.3577 4.85721 8.28497 4.85721 8.19643V7.58929ZM11.8394 9.71429C11.9279 9.71429 12.0006 9.74275 12.0575 9.79967C12.1145 9.85658 12.1429 9.92932 12.1429 10.0179V10.625C12.1429 10.7135 12.1145 10.7863 12.0575 10.8432C12.0006 10.9001 11.9279 10.9286 11.8394 10.9286H5.16078C5.07224 10.9286 4.99951 10.9001 4.94259 10.8432C4.88567 10.7863 4.85721 10.7135 4.85721 10.625V10.0179C4.85721 9.92932 4.88567 9.85658 4.94259 9.79967C4.99951 9.74275 5.07224 9.71429 5.16078 9.71429H11.8394ZM11.8394 12.1429C11.9279 12.1429 12.0006 12.1713 12.0575 12.2282C12.1145 12.2852 12.1429 12.3579 12.1429 12.4464V13.0536C12.1429 13.1421 12.1145 13.2148 12.0575 13.2718C12.0006 13.3287 11.9279 13.3571 11.8394 13.3571H5.16078C5.07224 13.3571 4.99951 13.3287 4.94259 13.2718C4.88567 13.2148 4.85721 13.1421 4.85721 13.0536V12.4464C4.85721 12.3579 4.88567 12.2852 4.94259 12.2282C4.99951 12.1713 5.07224 12.1429 5.16078 12.1429H11.8394Z" fill="#0054EB"/>
</g>
<defs>
<clipPath id="clip0_20513_8418">
<rect width="17" height="17" fill="white"/>
</clipPath>
</defs>
</svg>
