<svg width="32" height="40" viewBox="0 0 32 40" fill="none" xmlns="http://www.w3.org/2000/svg">
<path d="M26.7362 26.6609C29.4269 23.9309 31.0938 20.1903 31.0938 16.0625C31.0938 7.74125 24.3213 0.96875 16 0.96875C7.67875 0.96875 0.90625 7.74125 0.90625 16.0625C0.90625 20.1903 2.57313 23.9309 5.26375 26.6609L1.11625 33.7484C0.873437 34.1684 0.88 34.6869 1.13594 35.1003C1.39188 35.5137 1.84469 35.75 2.32375 35.7172L5.395 35.54L6.74031 38.2962C6.95031 38.7294 7.38344 39.0116 7.86906 39.0312C7.88219 39.0312 7.90188 39.0312 7.915 39.0312C8.38094 39.0312 8.81406 38.7819 9.05031 38.375L13.4078 30.9266C14.2478 31.0709 15.1141 31.1562 16 31.1562C16.8859 31.1562 17.7456 31.0775 18.5922 30.9266L22.9497 38.375C23.1859 38.7819 23.6191 39.0312 24.085 39.0312C24.0981 39.0312 24.1178 39.0312 24.1309 39.0312C24.6166 39.0116 25.0497 38.7294 25.2597 38.2962L26.605 35.54L29.6697 35.7172C30.1488 35.75 30.6081 35.5137 30.8641 35.1003C31.12 34.6869 31.1266 34.1684 30.8838 33.7484L26.7428 26.6609H26.7362ZM7.92156 37.7253L6.38594 34.5753C6.26781 34.3391 6.01844 34.1947 5.75594 34.2078L2.25156 34.4113L6.24812 27.5731C7.915 28.9906 9.89031 30.0472 12.0625 30.6313L7.92156 37.7188V37.7253ZM2.21875 16.0625C2.21875 8.46313 8.40063 2.28125 16 2.28125C23.5994 2.28125 29.7812 8.46313 29.7812 16.0625C29.7812 23.6619 23.5994 29.8438 16 29.8438C8.40063 29.8438 2.21875 23.6619 2.21875 16.0625ZM26.2441 34.2012C25.9816 34.1881 25.7322 34.3325 25.6141 34.5688L24.0784 37.7122L19.9375 30.6313C22.1097 30.0472 24.085 28.9841 25.7519 27.5731L29.7484 34.4047L26.2441 34.2012Z" fill="#48B452"/>
<path d="M16 3.59375C9.1225 3.59375 3.53125 9.185 3.53125 16.0625C3.53125 22.94 9.1225 28.5312 16 28.5312C22.8775 28.5312 28.4688 22.94 28.4688 16.0625C28.4688 9.185 22.8775 3.59375 16 3.59375ZM16 27.2188C9.85094 27.2188 4.84375 22.2116 4.84375 16.0625C4.84375 9.91344 9.85094 4.90625 16 4.90625C22.1491 4.90625 27.1562 9.91344 27.1562 16.0625C27.1562 22.2116 22.1491 27.2188 16 27.2188Z" fill="#48B452"/>
<path d="M18.9729 11.6589L14.3398 16.292L12.7583 14.7104C11.9904 13.9426 10.7436 13.9426 9.97576 14.7104C9.20795 15.4782 9.20795 16.7251 9.97576 17.4929L12.9486 20.4657C13.3292 20.8464 13.8345 21.0432 14.3398 21.0432C14.8451 21.0432 15.3504 20.8529 15.7311 20.4657L21.7555 14.4414C22.5233 13.6736 22.5233 12.4267 21.7555 11.6589C20.9876 10.8911 19.7408 10.8911 18.9729 11.6589ZM20.8301 13.5161L14.8058 19.5404C14.5498 19.7964 14.1364 19.7964 13.8804 19.5404L10.9076 16.5676C10.6517 16.3117 10.6517 15.8982 10.9076 15.6423C11.0323 15.5176 11.1964 15.452 11.3736 15.452C11.5508 15.452 11.7148 15.5176 11.8395 15.6423L13.887 17.6898C14.143 17.9457 14.5564 17.9457 14.8123 17.6898L19.9114 12.5907C20.1673 12.3348 20.5808 12.3348 20.8367 12.5907C20.9614 12.7154 21.027 12.8795 21.027 13.0567C21.027 13.2339 20.9614 13.3979 20.8367 13.5226L20.8301 13.5161Z" fill="#48B452"/>
</svg>
