<svg width="36" height="36" viewBox="0 0 36 36" fill="none" xmlns="http://www.w3.org/2000/svg">
<path d="M18 34.125C9.105 34.125 1.875 26.895 1.875 18C1.875 9.105 9.105 1.875 18 1.875C26.895 1.875 34.125 9.105 34.125 18C34.125 26.895 26.895 34.125 18 34.125ZM18 4.125C10.35 4.125 4.125 10.35 4.125 18C4.125 25.65 10.35 31.875 18 31.875C25.65 31.875 31.875 25.65 31.875 18C31.875 10.35 25.65 4.125 18 4.125Z" fill="#FE3A46"/>
<path d="M18 20.625C17.385 20.625 16.875 20.115 16.875 19.5V12C16.875 11.385 17.385 10.875 18 10.875C18.615 10.875 19.125 11.385 19.125 12V19.5C19.125 20.115 18.615 20.625 18 20.625Z" fill="#FE3A46"/>
<path d="M18 25.5003C17.805 25.5003 17.61 25.4553 17.43 25.3803C17.25 25.3053 17.085 25.2003 16.935 25.0653C16.8 24.9153 16.695 24.7653 16.62 24.5703C16.545 24.3903 16.5 24.1953 16.5 24.0003C16.5 23.8053 16.545 23.6103 16.62 23.4303C16.695 23.2503 16.8 23.0853 16.935 22.9353C17.085 22.8003 17.25 22.6953 17.43 22.6203C17.79 22.4703 18.21 22.4703 18.57 22.6203C18.75 22.6953 18.915 22.8003 19.065 22.9353C19.2 23.0853 19.305 23.2503 19.38 23.4303C19.455 23.6103 19.5 23.8053 19.5 24.0003C19.5 24.1953 19.455 24.3903 19.38 24.5703C19.305 24.7653 19.2 24.9153 19.065 25.0653C18.915 25.2003 18.75 25.3053 18.57 25.3803C18.39 25.4553 18.195 25.5003 18 25.5003Z" fill="#FE3A46"/>
</svg>
