<svg width="19" height="22" viewBox="0 0 19 22" fill="none" xmlns="http://www.w3.org/2000/svg">
<path d="M6.96432 19.6253C7.64008 20.2218 8.52773 20.5837 9.49991 20.5837C10.4721 20.5837 11.3597 20.2218 12.0355 19.6253M15.2499 7.16699C15.2499 5.642 14.6441 4.17946 13.5658 3.10113C12.4874 2.02279 11.0249 1.41699 9.49991 1.41699C7.97491 1.41699 6.51238 2.02279 5.43404 3.10113C4.35571 4.17946 3.74991 5.642 3.74991 7.16699C3.74991 10.1284 3.00286 12.156 2.16833 13.4972C1.4644 14.6285 1.11244 15.1941 1.12534 15.3519C1.13963 15.5266 1.17665 15.5932 1.31744 15.6977C1.4446 15.792 2.01781 15.792 3.16422 15.792H15.8356C16.982 15.792 17.5552 15.792 17.6824 15.6977C17.8232 15.5932 17.8602 15.5266 17.8745 15.3519C17.8874 15.1941 17.5354 14.6285 16.8315 13.4972C15.997 12.156 15.2499 10.1284 15.2499 7.16699Z" stroke="#333333" stroke-width="1.6" stroke-linecap="round" stroke-linejoin="round"/>
</svg>
