<svg width="16" height="16" viewBox="0 0 16 16" fill="none" xmlns="http://www.w3.org/2000/svg">
<path d="M7.00018 2.99997C7.13179 2.99921 7.26225 3.02444 7.38409 3.0742C7.50593 3.12396 7.61674 3.19729 7.71018 3.28997L11.7102 7.28997C11.8964 7.47734 12.001 7.73079 12.001 7.99497C12.001 8.25916 11.8964 8.51261 11.7102 8.69997L7.71018 12.7C7.51888 12.8638 7.27281 12.9494 7.02113 12.9397C6.76945 12.93 6.53072 12.8256 6.35262 12.6475C6.17453 12.4694 6.07019 12.2307 6.06047 11.979C6.05075 11.7273 6.13636 11.4813 6.30018 11.29L9.59018 7.99997L6.30018 4.70997C6.15976 4.5707 6.06379 4.39292 6.02441 4.1991C5.98502 4.00529 6.00399 3.80415 6.07892 3.62112C6.15384 3.43809 6.28136 3.28138 6.44534 3.17082C6.60933 3.06026 6.80241 3.0008 7.00018 2.99997Z" fill="#A5A5A5"/>
<path d="M1 7L11 7C11.2652 7 11.5196 7.10536 11.7071 7.29289C11.8946 7.48043 12 7.73478 12 8C12 8.26522 11.8946 8.51957 11.7071 8.70711C11.5196 8.89464 11.2652 9 11 9L1 9C0.734784 9 0.480429 8.89464 0.292893 8.70711C0.105357 8.51957 6.76196e-07 8.26521 6.99382e-07 8C7.22568e-07 7.73478 0.105357 7.48043 0.292893 7.29289C0.480429 7.10536 0.734784 7 1 7ZM15 -8.74228e-08C15.2652 -6.42368e-08 15.5196 0.105356 15.7071 0.292892C15.8946 0.480429 16 0.734783 16 1L16 15C16 15.2652 15.8946 15.5196 15.7071 15.7071C15.5196 15.8946 15.2652 16 15 16C14.7348 16 14.4804 15.8946 14.2929 15.7071C14.1054 15.5196 14 15.2652 14 15L14 1C14 0.734783 14.1054 0.480429 14.2929 0.292892C14.4804 0.105356 14.7348 -1.10609e-07 15 -8.74228e-08Z" fill="#A5A5A5"/>
</svg>
