<svg width="18" height="20" viewBox="0 0 18 20" fill="none" xmlns="http://www.w3.org/2000/svg">
<path d="M7.89273 19.501C7.55173 19.501 7.25723 19.3878 7.00923 19.1615C6.76107 18.9353 6.61007 18.6568 6.55623 18.326L6.31198 16.4547C6.04415 16.3651 5.76948 16.2395 5.48798 16.078C5.20665 15.9163 4.95507 15.7432 4.73323 15.5587L3.00048 16.2952C2.68632 16.4337 2.37065 16.4471 2.05348 16.3355C1.73615 16.224 1.48965 16.0215 1.31398 15.728L0.186982 13.774C0.0113158 13.4805 -0.0392676 13.1699 0.0352324 12.8422C0.109566 12.5147 0.280066 12.2446 0.546733 12.0317L2.04473 10.9067C2.02173 10.7581 2.0054 10.6087 1.99573 10.4587C1.98607 10.3087 1.98123 10.1593 1.98123 10.0105C1.98123 9.86831 1.98607 9.72381 1.99573 9.57698C2.0054 9.43014 2.02173 9.26956 2.04473 9.09523L0.546733 7.97023C0.280066 7.75739 0.111149 7.48556 0.0399825 7.15473C-0.0311842 6.82406 0.0210657 6.51189 0.196732 6.21823L1.31398 4.29323C1.48965 4.00606 1.73615 3.80514 2.05348 3.69048C2.37065 3.57564 2.68632 3.58748 3.00048 3.72598L4.72348 4.45298C4.96465 4.26198 5.22207 4.08731 5.49573 3.92898C5.7694 3.77064 6.03832 3.64339 6.30248 3.54723L6.55623 1.67598C6.61007 1.34514 6.76107 1.06664 7.00923 0.840477C7.25723 0.614144 7.55173 0.500977 7.89273 0.500977H10.1082C10.4492 0.500977 10.7437 0.614144 10.9917 0.840477C11.2399 1.06664 11.3909 1.34514 11.4447 1.67598L11.689 3.55673C11.989 3.66573 12.2604 3.79298 12.5032 3.93848C12.7462 4.08398 12.9915 4.25548 13.239 4.45298L15.0102 3.72598C15.3242 3.58748 15.6399 3.57564 15.9572 3.69048C16.2746 3.80514 16.521 4.00606 16.6965 4.29323L17.814 6.22798C17.9896 6.52148 18.0402 6.83206 17.9657 7.15973C17.8914 7.48723 17.7209 7.75739 17.4542 7.97023L15.9177 9.12398C15.9536 9.28548 15.9731 9.43648 15.9765 9.57698C15.9796 9.71731 15.9812 9.85864 15.9812 10.001C15.9812 10.1368 15.978 10.275 15.9715 10.4155C15.9651 10.5558 15.9421 10.7164 15.9025 10.8972L17.41 12.0317C17.6766 12.2446 17.8488 12.5147 17.9265 12.8422C18.004 13.1699 17.9549 13.4805 17.7792 13.774L16.6465 15.7182C16.471 16.0119 16.223 16.2145 15.9025 16.326C15.582 16.4375 15.2646 16.424 14.9505 16.2855L13.239 15.549C12.9915 15.7465 12.7389 15.9211 12.4812 16.073C12.2236 16.225 11.9595 16.3491 11.689 16.4452L11.4447 18.326C11.3909 18.6568 11.2399 18.9353 10.9917 19.1615C10.7437 19.3878 10.4492 19.501 10.1082 19.501H7.89273ZM8.00048 18.001H9.96598L10.3255 15.3222C10.8358 15.1889 11.3021 14.9995 11.7245 14.754C12.147 14.5083 12.5544 14.1926 12.9467 13.8067L15.4312 14.851L16.416 13.151L14.2467 11.5165C14.3301 11.2575 14.3867 11.0036 14.4167 10.7547C14.4469 10.5061 14.462 10.2548 14.462 10.001C14.462 9.74064 14.4469 9.48939 14.4167 9.24723C14.3867 9.00489 14.3301 8.75739 14.2467 8.50473L16.435 6.85098L15.4505 5.15098L12.937 6.21048C12.6023 5.85281 12.2014 5.53681 11.7342 5.26248C11.2669 4.98814 10.7941 4.79389 10.316 4.67973L10.0005 2.00098H8.01598L7.68498 4.67023C7.17482 4.79073 6.70373 4.97531 6.27173 5.22398C5.83957 5.47281 5.42732 5.79331 5.03498 6.18548L2.55048 5.15098L1.56598 6.85098L3.72548 8.46048C3.64215 8.69781 3.58382 8.94464 3.55048 9.20098C3.51715 9.45731 3.50048 9.72714 3.50048 10.0105C3.50048 10.2708 3.51715 10.526 3.55048 10.776C3.58382 11.026 3.63898 11.2728 3.71598 11.5165L1.56598 13.151L2.55048 14.851L5.02548 13.801C5.40498 14.1906 5.81073 14.5099 6.24273 14.7587C6.6749 15.0074 7.15248 15.1984 7.67548 15.3317L8.00048 18.001ZM9.01198 13.001C9.84398 13.001 10.552 12.709 11.136 12.125C11.72 11.541 12.012 10.833 12.012 10.001C12.012 9.16898 11.72 8.46098 11.136 7.87698C10.552 7.29298 9.84398 7.00098 9.01198 7.00098C8.16965 7.00098 7.45907 7.29298 6.88023 7.87698C6.3014 8.46098 6.01198 9.16898 6.01198 10.001C6.01198 10.833 6.3014 11.541 6.88023 12.125C7.45907 12.709 8.16965 13.001 9.01198 13.001Z" fill="#666666"/>
</svg>
