<svg width="335" height="224" viewBox="0 0 335 224" fill="none" xmlns="http://www.w3.org/2000/svg">
<path d="M12.9951 -84.148C-1.04231 -112.85 -43.6795 -119.339 -65.6804 -75.2222L-95 -15.9392C-73.059 -31.4623 -45.8541 -22.5055 -35.191 -0.679859L60.5963 195.099C74.6337 223.785 117.586 230.445 139.272 186.157L176 111.18C145.496 119.547 111.512 117.172 96.6796 86.8864L12.9951 -84.148Z" fill="#0054EB" fill-opacity="0.04"/>
<path d="M296.017 224L328.018 156.971C335.613 141.075 338.344 129.029 329.369 110.665L233.501 -85.0984C219.467 -113.785 176.463 -120.445 154.759 -76.1571L118 -1.27303C148.53 -9.64005 182.542 -7.24948 197.387 23.0208C230.279 89.988 263.155 156.955 296.017 223.922L296.017 224Z" fill="#0054EB" fill-opacity="0.04"/>
</svg>
