<svg width="171" height="114" viewBox="0 0 171 114" fill="none" xmlns="http://www.w3.org/2000/svg">
<path d="M60.359 8.30384C55.5376 -1.55182 40.8932 -3.77987 33.3366 11.3687L23.2663 31.725C30.8023 26.3947 40.1463 29.4703 43.8087 36.9647L76.7084 104.19C81.5298 114.04 96.2824 116.327 103.731 101.12L116.346 75.3745C105.868 78.2476 94.1962 77.432 89.1018 67.0327L60.359 8.30384Z" fill="#0054EB"/>
<path d="M157.622 114L168.604 90.9839C171.21 85.5257 172.148 81.3895 169.067 75.0838L136.168 7.8638C131.351 -1.98653 116.594 -4.27322 109.145 10.934L96.5304 36.6472C107.008 33.7742 118.68 34.5951 123.774 44.9891C135.062 67.9838 146.344 90.9786 157.622 113.973L157.622 114Z" fill="#0054EB"/>
<path d="M13.3682 113.842L2.38624 90.8258C-0.189281 85.3676 -1.15769 81.2313 1.92264 74.9256L14.2851 49.6282L29.8413 80.2719L13.358 113.853L13.3682 113.842Z" fill="#01EA97"/>
</svg>
