<svg width="80" height="88" viewBox="0 0 80 88" fill="none" xmlns="http://www.w3.org/2000/svg">
<g filter="url(#filter0_d_20513_8174)">
<rect x="15" y="10" width="50" height="50" rx="5" fill="white"/>
<path d="M34.6482 25.6021C33.7177 23.7001 30.8916 23.2702 29.4333 26.1936L27.4899 30.122C28.9443 29.0933 30.7475 29.6869 31.4543 31.1332L37.8033 44.1065C38.7338 46.0074 41.5808 46.4487 43.0182 43.514L45.4526 38.5456C43.4307 39.1 41.1782 38.9426 40.195 36.9358L34.6482 25.6021Z" fill="#0054EB"/>
<path d="M53.4182 46L55.5376 41.5583C56.0406 40.505 56.2215 39.7067 55.627 38.4898L49.278 25.5176C48.3485 23.6166 45.5005 23.1753 44.0631 26.1101L41.6287 31.0723C43.6506 30.5178 45.9031 30.6762 46.8863 32.6821C49.0646 37.1197 51.2419 41.5573 53.4182 45.9949L53.4182 46Z" fill="#0054EB"/>
<path d="M25.5798 45.9696L23.4604 41.5279C22.9634 40.4746 22.7765 39.6764 23.371 38.4595L25.7567 33.5775L28.7588 39.4912L25.5778 45.9717L25.5798 45.9696Z" fill="#01EA97"/>
</g>
<defs>
<filter id="filter0_d_20513_8174" x="-7" y="-10" width="98" height="98" filterUnits="userSpaceOnUse" color-interpolation-filters="sRGB">
<feFlood flood-opacity="0" result="BackgroundImageFix"/>
<feColorMatrix in="SourceAlpha" type="matrix" values="0 0 0 0 0 0 0 0 0 0 0 0 0 0 0 0 0 0 127 0" result="hardAlpha"/>
<feOffset dx="2" dy="4"/>
<feGaussianBlur stdDeviation="12"/>
<feComposite in2="hardAlpha" operator="out"/>
<feColorMatrix type="matrix" values="0 0 0 0 0 0 0 0 0 0 0 0 0 0 0 0 0 0 0.08 0"/>
<feBlend mode="normal" in2="BackgroundImageFix" result="effect1_dropShadow_20513_8174"/>
<feBlend mode="normal" in="SourceGraphic" in2="effect1_dropShadow_20513_8174" result="shape"/>
</filter>
</defs>
</svg>
